<?xml version="1.0" encoding="UTF-8"?> <svg xmlns="http://www.w3.org/2000/svg" width="120" height="120" viewBox="0 0 120 120"><g fill="none" fill-rule="evenodd" transform="translate(0 .001)"><rect width="120" height="120" fill="#FFC82D"></rect><path fill="#FFF" fill-rule="nonzero" d="M44.0290909,48.84 C44.0290909,48.84 59.6490909,48.4 71.5290909,48.4 C71.5290909,48.4 73.0690909,48.84 73.0690909,46.64 C73.0690909,44.66 72.6290909,28.16 72.1890909,18.7 C72.1890909,18.7 72.6290909,17.38 71.3090909,17.38 C69.7690909,17.6 64.9290909,17.38 60.3090909,17.6 C60.3090909,17.6 59.6490909,17.6 60.7490909,16.5 C61.8490909,15.4 64.2690909,12.1 71.3090909,5.06 C71.3090909,5.06 71.3090909,4.84 71.7490909,4.84 C72.1890909,4.62 71.9690909,4.4 71.9690909,3.96 C71.9690909,3.52 71.9690909,0.88 71.7490909,0.66 C71.5290909,0.22 71.5290909,0 70.8690909,0 C70.2090909,0 69.1090909,0.44 68.0090909,1.32 C66.9090909,1.98 46.4490909,12.98 42.0490909,15.18 C42.0490909,15.18 40.9490909,15.4 41.1690909,16.72 C41.1690909,16.72 41.3890909,17.82 41.6090909,34.54 C41.6090909,34.54 41.8290909,44 41.6090909,47.52 C41.6090909,47.52 41.3890909,49.06 42.4890909,48.84 C43.8090909,48.84 44.0290909,48.84 44.0290909,48.84 Z M2.88909091,48.84 C2.88909091,48.84 18.5090909,48.4 30.3890909,48.4 C30.3890909,48.4 31.9290909,48.84 31.9290909,46.64 C31.9290909,44.66 31.7090909,28.16 31.0490909,18.7 C31.0490909,18.7 31.4890909,17.38 30.1690909,17.38 C28.6290909,17.6 23.7890909,17.38 19.1690909,17.6 C19.1690909,17.6 18.5090909,17.6 19.6090909,16.5 C20.7090909,15.4 23.1290909,12.1 30.1690909,5.06 C30.1690909,5.06 30.1690909,4.84 30.6090909,4.84 C31.0490909,4.62 30.8290909,4.4 30.8290909,3.96 C30.8290909,3.52 30.8290909,0.88 30.6090909,0.66 C30.3890909,0.22 30.3890909,0 29.7290909,0 C29.0690909,0 27.9690909,0.44 26.8690909,1.32 C25.7690909,1.98 5.30909091,12.98 0.909090909,15.18 C0.909090909,15.18 -0.190909091,15.4 0.0290909091,16.72 C0.0290909091,16.72 0.249090909,17.82 0.469090909,34.54 C0.469090909,34.54 0.689090909,44 0.469090909,47.52 C0.469090909,47.52 0.249090909,49.06 1.34909091,48.84 C2.66909091,48.84 2.88909091,48.84 2.88909091,48.84 Z" transform="translate(22.59 33.78)"></path></g></svg> 